{
    "asset" : {
        "generator" : "Khronos glTF Blender I/O v1.7.33",
        "version" : "2.0"
    },
    "extensionsUsed" : [
        "KHR_materials_clearcoat"
    ],
    "scene" : 0,
    "scenes" : [
        {
            "name" : "Scene",
            "nodes" : [
                0,
                1,
                2,
                3,
                4
            ]
        }
    ],
    "nodes" : [
        {
            "name" : "\u30a8\u30f3\u30d7\u30c6\u30a3",
            "rotation" : [
                0.7071068286895752,
                0,
                0,
                0.7071067094802856
            ],
            "scale" : [
                3.1095504760742188,
                3.1095504760742188,
                3.1095504760742188
            ],
            "translation" : [
                -1.5681911706924438,
                0.8143604397773743,
                12.848649978637695
            ]
        },
        {
            "name" : "\u30a8\u30f3\u30d7\u30c6\u30a3.001",
            "rotation" : [
                0.5,
                0.4999999701976776,
                -0.5000000596046448,
                0.4999999403953552
            ],
            "scale" : [
                3.050910234451294,
                3.050910234451294,
                3.050910234451294
            ],
            "translation" : [
                20.980276107788086,
                0.8196437358856201,
                5.172763347625732
            ]
        },
        {
            "name" : "\u30a8\u30f3\u30d7\u30c6\u30a3.002",
            "rotation" : [
                0,
                0.7071067094802856,
                -0.7071068286895752,
                -1.1520230458472724e-07
            ],
            "scale" : [
                3.109739065170288,
                3.109739065170288,
                3.109739065170288
            ],
            "translation" : [
                1.564404010772705,
                0.8076974153518677,
                -23.365541458129883
            ]
        },
        {
            "name" : "\u30a8\u30f3\u30d7\u30c6\u30a3.003",
            "rotation" : [
                0,
                -0.7071068286895752,
                0,
                -0.7071068286895752
            ],
            "scale" : [
                3.0188493728637695,
                3.0188493728637695,
                3.0188493728637695
            ],
            "translation" : [
                -2.6779873371124268,
                35.05326461791992,
                -2.0499961376190186
            ]
        },
        {
            "mesh" : 0,
            "name" : "\u5e73\u9762",
            "translation" : [
                0.007145479321479797,
                0.9592323899269104,
                0.0065246457234025
            ]
        }
    ],
    "materials" : [
        {
            "doubleSided" : true,
            "extensions" : {
                "KHR_materials_clearcoat" : {
                    "clearcoatFactor" : 0.01034482754766941,
                    "clearcoatRoughnessFactor" : 0.029999999329447746
                }
            },
            "name" : "\u30de\u30c6\u30ea\u30a2\u30eb.002",
            "pbrMetallicRoughness" : {
                "baseColorFactor" : [
                    0.011833704076707363,
                    0.011833704076707363,
                    0.011833704076707363,
                    1
                ],
                "metallicFactor" : 0.158620685338974,
                "roughnessFactor" : 0.6482758522033691
            }
        },
        {
            "doubleSided" : true,
            "name" : "\u30de\u30c6\u30ea\u30a2\u30eb",
            "pbrMetallicRoughness" : {
                "baseColorFactor" : [
                    0.30065304040908813,
                    0.28116610646247864,
                    0.303199827671051,
                    1
                ],
                "metallicFactor" : 0.08620689809322357,
                "roughnessFactor" : 0.6103448271751404
            }
        }
    ],
    "meshes" : [
        {
            "name" : "\u5e73\u9762.001",
            "primitives" : [
                {
                    "attributes" : {
                        "POSITION" : 0,
                        "NORMAL" : 1,
                        "TEXCOORD_0" : 2
                    },
                    "indices" : 3,
                    "material" : 0
                },
                {
                    "attributes" : {
                        "POSITION" : 4,
                        "NORMAL" : 5,
                        "TEXCOORD_0" : 6
                    },
                    "indices" : 7,
                    "material" : 1
                }
            ]
        }
    ],
    "accessors" : [
        {
            "bufferView" : 0,
            "componentType" : 5126,
            "count" : 725,
            "max" : [
                1.3673616647720337,
                1.136659860610962,
                1.7329189777374268
            ],
            "min" : [
                -1.3673614263534546,
                -1.065608263015747,
                -1.7328459024429321
            ],
            "type" : "VEC3"
        },
        {
            "bufferView" : 1,
            "componentType" : 5126,
            "count" : 725,
            "type" : "VEC3"
        },
        {
            "bufferView" : 2,
            "componentType" : 5126,
            "count" : 725,
            "type" : "VEC2"
        },
        {
            "bufferView" : 3,
            "componentType" : 5123,
            "count" : 3288,
            "type" : "SCALAR"
        },
        {
            "bufferView" : 4,
            "componentType" : 5126,
            "count" : 36,
            "max" : [
                0.005916554480791092,
                1.1363493204116821,
                1.7211250066757202
            ],
            "min" : [
                -0.006441778037697077,
                0.6926367878913879,
                -1.721051812171936
            ],
            "type" : "VEC3"
        },
        {
            "bufferView" : 5,
            "componentType" : 5126,
            "count" : 36,
            "type" : "VEC3"
        },
        {
            "bufferView" : 6,
            "componentType" : 5126,
            "count" : 36,
            "type" : "VEC2"
        },
        {
            "bufferView" : 7,
            "componentType" : 5123,
            "count" : 102,
            "type" : "SCALAR"
        }
    ],
    "bufferViews" : [
        {
            "buffer" : 0,
            "byteLength" : 8700,
            "byteOffset" : 0
        },
        {
            "buffer" : 0,
            "byteLength" : 8700,
            "byteOffset" : 8700
        },
        {
            "buffer" : 0,
            "byteLength" : 5800,
            "byteOffset" : 17400
        },
        {
            "buffer" : 0,
            "byteLength" : 6576,
            "byteOffset" : 23200
        },
        {
            "buffer" : 0,
            "byteLength" : 432,
            "byteOffset" : 29776
        },
        {
            "buffer" : 0,
            "byteLength" : 432,
            "byteOffset" : 30208
        },
        {
            "buffer" : 0,
            "byteLength" : 288,
            "byteOffset" : 30640
        },
        {
            "buffer" : 0,
            "byteLength" : 204,
            "byteOffset" : 30928
        }
    ],
    "buffers" : [
        {
            "byteLength" : 31132,
            "uri" : "data:application/octet-stream;base64,"
        }
    ]
}
