{"asset":{"generator":"3D Builder","version":"2.0"},"scene":0,"scenes":[{"nodes":[0]}],"nodes":[{"mesh":0,"matrix":[1.0000001192092896,-3.3117819597805465E-9,6.0558313919045759E-9,0,6.0558318359937857E-9,-1.1769534324912456E-7,-1,0,-7.56978923988072E-10,1,-1.2223722478665877E-7,0,9.46223724374029E-11,0.042956601828336716,-1.7144214936593016E-9,1]}],"meshes":[{"primitives":[{"attributes":{"POSITION":0},"mode":4,"indices":1,"material":0}]}],"materials":[{"name":"Material","pbrMetallicRoughness":{"baseColorFactor":[0.800000011920929,0.800000011920929,0.800000011920929,1],"metallicFactor":0.20000000298023224,"roughnessFactor":0.85000002384185791},"alphaMode":"OPAQUE"}],"accessors":[{"bufferView":0,"byteOffset":0,"count":1162,"componentType":5126,"type":"VEC3","min":[-0.089630588889122009,-0.10814881324768066,-0.042956598103046417],"max":[0.048842016607522964,0.11058692634105682,0.036420203745365143]},{"bufferView":1,"byteOffset":0,"count":6960,"componentType":5125,"type":"SCALAR"}],"bufferViews":[{"buffer":0,"byteOffset":0,"byteLength":13944,"byteStride":12,"target":34962},{"buffer":0,"byteOffset":13944,"byteLength":27840,"target":34963}],"buffers":[{"byteLength":41784,"uri":"rightHandHigh.bin"}]}